<?xml version="1.0" encoding="UTF-8"?>
<svg xmlns="http://www.w3.org/2000/svg" xmlns:xlink="http://www.w3.org/1999/xlink"
     width="128.8375" height="68.58250000000626" viewBox="4907.88375 -23864.306250000005 128.8375 68.58250000000626">
<defs>
<style type="text/css">
.l205d0 {fill: none; stroke: rgb(0, 255, 0); stroke-width: 0.1;}
.l56d0 {fill: none; stroke: rgb(255, 0, 0); stroke-width: 0.1;}
.l3d0 {fill: none; stroke: rgb(0, 0, 255); stroke-width: 0.1;}
</style>
<g id="cell_0" >
</g>
</defs>
<rect x="4907.88375" y="-23864.306250000005" width="128.8375" height="68.58250000000626" fill="white" stroke="none"/>
<g id="top" transform="scale(1 -1)">
<polygon class="l3d0" points="5023.135,23804.64 5023.135,23805.0 5024.735,23805.0 5024.735,23804.64"/>
<polygon class="l3d0" points="5023.135,23815.8 5023.135,23816.16 5024.735,23816.16 5024.735,23815.8"/>
<polygon class="l3d0" points="5023.135,23822.28 5023.135,23822.64 5024.735,23822.64 5024.735,23822.28"/>
<polygon class="l3d0" points="5023.135,23833.440000000002 5023.135,23833.800000000003 5024.735,23833.800000000003 5024.735,23833.440000000002"/>
<polygon class="l3d0" points="5023.135,23839.920000000002 5023.135,23840.280000000002 5024.735,23840.280000000002 5024.735,23839.920000000002"/>
<polygon class="l3d0" points="5023.135,23851.08 5023.135,23851.440000000002 5024.735,23851.440000000002 5024.735,23851.08"/>
<polygon class="l3d0" points="4974.615,23807.035 4974.615,23807.375 4977.62,23807.375 4977.62,23807.035"/>
<polygon class="l3d0" points="4974.615,23812.075 4974.615,23812.415 4977.62,23812.415 4977.62,23812.075"/>
<polygon class="l3d0" points="4974.615,23824.675000000003 4974.615,23825.015 4977.62,23825.015 4977.62,23824.675000000003"/>
<polygon class="l3d0" points="4974.615,23829.715 4974.615,23830.055 4977.62,23830.055 4977.62,23829.715"/>
<polygon class="l3d0" points="4974.615,23842.315 4974.615,23842.655 4977.62,23842.655 4977.62,23842.315"/>
<polygon class="l3d0" points="4974.615,23847.355000000003 4974.615,23847.695 4977.62,23847.695 4977.62,23847.355000000003"/>
<polygon class="l3d0" points="4974.615,23808.375 4974.615,23808.725 4977.62,23808.725 4977.62,23808.375"/>
<polygon class="l3d0" points="4974.615,23813.415 4974.615,23813.765 4977.62,23813.765 4977.62,23813.415"/>
<polygon class="l3d0" points="4974.615,23826.015000000003 4974.615,23826.365 4977.62,23826.365 4977.62,23826.015000000003"/>
<polygon class="l3d0" points="4974.615,23831.055 4974.615,23831.405 4977.62,23831.405 4977.62,23831.055"/>
<polygon class="l3d0" points="4974.615,23843.655 4974.615,23844.005 4977.62,23844.005 4977.62,23843.655"/>
<polygon class="l3d0" points="4974.615,23848.695000000003 4974.615,23849.045000000002 4977.62,23849.045000000002 4977.62,23848.695000000003"/>
<polygon class="l3d0" points="4994.785,23850.945 4994.785,23851.295 4995.865,23851.295 4995.865,23850.945"/>
<polygon class="l205d0" points="4938.02,23829.885 4938.02,23829.945000000003 4934.745000000001,23829.945000000003 4934.745000000001,23831.175 4938.12,23831.175 4938.12,23833.980000000003 4939.0199999999995,23833.980000000003 4939.0199999999995,23829.885"/>
<polygon class="l205d0" points="4927.5650000000005,23801.579999999998 4927.5650000000005,23804.144999999997 4925.135,23804.144999999997 4925.135,23805.945 4927.5650000000005,23805.945 4927.5650000000005,23813.595 4925.135,23813.595 4925.135,23815.394999999997 4927.5650000000005,23815.394999999997 4927.5650000000005,23823.045000000002 4925.135,23823.045000000002 4925.135,23824.845 4927.5650000000005,23824.845 4927.5650000000005,23832.495 4925.135,23832.495 4925.135,23834.295000000002 4927.5650000000005,23834.295000000002 4927.5650000000005,23841.945 4925.135,23841.945 4925.135,23843.745 4927.5650000000005,23843.745 4927.5650000000005,23851.395000000004 4925.135,23851.395000000004 4925.135,23853.195 4927.5650000000005,23853.195 4927.5650000000005,23858.450000000004 4928.465,23858.450000000004 4928.465,23801.579999999998"/>
<polygon class="l205d0" points="4920.4275,23829.8575 4920.4275,23831.370000000003 4922.2825,23831.370000000003 4922.2825,23829.8575"/>
<polygon class="l205d0" points="4958.64,23822.325 4958.64,23823.614999999998 4963.41,23823.614999999998 4963.41,23824.45 4963.635,23824.45 4963.635,23826.59 4963.41,23826.59 4963.41,23827.425 4958.37,23827.425 4958.37,23828.655 4963.41,23828.655 4963.41,23829.49 4963.635,23829.49 4963.635,23831.63 4963.41,23831.63 4963.41,23832.465000000004 4958.64,23832.465000000004 4958.64,23833.755 4964.51,23833.755 4964.51,23832.755 4964.535,23832.755 4964.535,23828.985 4964.51,23828.985 4964.51,23827.095 4964.535,23827.095 4964.535,23823.325 4964.51,23823.325 4964.51,23822.325"/>
<polygon class="l205d0" points="4916.135,23826.6 4916.135,23827.5 4916.37,23827.5 4916.37,23829.84 4916.135,23829.84 4916.135,23830.74 4917.575,23830.74 4917.575,23829.84 4917.34,23829.84 4917.34,23827.5 4917.575,23827.5 4917.575,23826.6"/>
<polygon class="l205d0" points="4939.92,23822.46 4939.92,23823.614999999998 4943.745,23823.614999999998 4943.745,23824.45 4943.97,23824.45 4943.97,23826.59 4943.745,23826.59 4943.745,23827.425 4939.92,23827.425 4939.92,23828.655 4943.745,23828.655 4943.745,23829.49 4943.97,23829.49 4943.97,23831.63 4943.745,23831.63 4943.745,23832.465000000004 4939.92,23832.465000000004 4939.92,23833.620000000003 4944.845,23833.620000000003 4944.845,23832.620000000003 4944.87,23832.620000000003 4944.87,23828.985 4944.845,23828.985 4944.845,23827.095 4944.87,23827.095 4944.87,23823.46 4944.845,23823.46 4944.845,23822.46"/>
<polygon class="l205d0" points="4970.835,23801.579999999998 4970.835,23858.450000000004 4972.610000000001,23858.450000000004 4972.610000000001,23857.92 4973.635,23857.92 4973.635,23857.795000000002 4973.97,23857.795000000002 4973.97,23856.245 4973.635,23856.245 4973.635,23856.120000000003 4972.610000000001,23856.120000000003 4972.610000000001,23851.260000000002 4972.635,23851.260000000002 4972.635,23846.355 4973.97,23846.355 4973.97,23845.005 4972.635,23845.005 4972.635,23840.17 4972.610000000001,23840.17 4972.610000000001,23833.55 4972.635,23833.55 4972.635,23828.715000000004 4973.97,23828.715000000004 4973.97,23827.364999999998 4972.635,23827.364999999998 4972.635,23822.530000000002 4972.610000000001,23822.530000000002 4972.610000000001,23815.91 4972.635,23815.91 4972.635,23811.075 4973.97,23811.075 4973.97,23809.725 4972.635,23809.725 4972.635,23804.89 4972.610000000001,23804.89 4972.610000000001,23801.579999999998"/>
<polygon class="l205d0" points="5013.64,23829.165 5013.64,23829.39 5012.415,23829.39 5012.415,23829.945000000003 5002.525,23829.945000000003 5002.525,23829.885 5001.3,23829.885 5001.3,23833.53 5000.400000000001,23833.53 5000.400000000001,23833.58 4999.275,23833.58 4999.275,23834.855000000003 5002.425,23834.855000000003 5002.425,23833.53 5002.4,23833.53 5002.4,23832.010000000002 5002.65,23832.010000000002 5002.65,23831.235 5005.575,23831.235 5005.575,23831.175 5012.765,23831.175 5012.765,23831.16 5013.765,23831.16 5013.765,23830.515 5016.87,23830.515 5016.87,23831.29 5017.095,23831.29 5017.095,23834.835000000003 5018.005,23834.835000000003 5018.005,23831.29 5018.22,23831.29 5018.22,23830.515 5019.995,23830.515 5019.995,23830.29 5025.985,23830.29 5025.985,23832.755 5025.735000000001,23832.755 5025.735000000001,23833.755 5027.085,23833.755 5027.085,23829.39 5020.245,23829.39 5020.245,23829.165"/>
<polygon class="l205d0" points="4930.295,23801.579999999998 4930.295,23802.559999999998 4930.245,23802.559999999998 4930.245,23818.24 4930.295,23818.24 4930.295,23820.2 4930.245,23820.2 4930.245,23835.88 4930.295,23835.88 4930.295,23837.84 4930.245,23837.84 4930.245,23858.450000000004 4932.045,23858.450000000004 4932.045,23857.92 4933.045,23857.92 4933.045,23857.894999999997 4944.015,23857.894999999997 4944.015,23856.145 4933.045,23856.145 4933.045,23856.120000000003 4932.045,23856.120000000003 4932.045,23855.120000000003 4932.02,23855.120000000003 4932.02,23852.395 4931.92,23852.395 4931.92,23838.715000000004 4937.22,23838.715000000004 4937.22,23838.465 4940.02,23838.465 4940.02,23838.715000000004 4945.455,23838.715000000004 4945.455,23835.005 4940.02,23835.005 4940.02,23835.255 4937.22,23835.255 4937.22,23835.005 4931.92,23835.005 4931.92,23821.075 4937.22,23821.075 4937.22,23820.825 4940.02,23820.825 4940.02,23821.075 4945.455,23821.075 4945.455,23817.364999999998 4940.02,23817.364999999998 4940.02,23817.615 4937.22,23817.615 4937.22,23817.364999999998 4931.92,23817.364999999998 4931.92,23803.434999999998 4937.22,23803.434999999998 4937.22,23803.184999999998 4940.02,23803.184999999998 4940.02,23803.434999999998 4945.455,23803.434999999998 4945.455,23801.579999999998"/>
<polygon class="l205d0" points="4949.775000000001,23801.579999999998 4949.775000000001,23802.915 4953.41,23802.915 4953.41,23802.655 4958.64,23802.655 4958.64,23802.915 4966.235000000001,23802.915 4966.235000000001,23802.93 4967.235,23802.93 4967.235,23803.93 4967.36,23803.93 4967.36,23816.87 4967.235,23816.87 4967.235,23817.870000000003 4966.235000000001,23817.870000000003 4966.235000000001,23817.885000000002 4958.64,23817.885000000002 4958.64,23818.145 4953.41,23818.145 4953.41,23817.885000000002 4949.775000000001,23817.885000000002 4949.775000000001,23820.555 4953.41,23820.555 4953.41,23820.295000000002 4958.64,23820.295000000002 4958.64,23820.555 4966.235000000001,23820.555 4966.235000000001,23820.570000000003 4967.235,23820.570000000003 4967.235,23821.57 4967.36,23821.57 4967.36,23834.510000000002 4967.235,23834.510000000002 4967.235,23835.51 4966.235000000001,23835.51 4966.235000000001,23835.525 4958.64,23835.525 4958.64,23835.785 4953.41,23835.785 4953.41,23835.525 4949.775000000001,23835.525 4949.775000000001,23838.195 4953.41,23838.195 4953.41,23837.935 4958.64,23837.935 4958.64,23838.195 4966.235000000001,23838.195 4966.235000000001,23838.21 4967.235,23838.21 4967.235,23839.210000000003 4967.36,23839.210000000003 4967.36,23852.170000000002 4967.26,23852.170000000002 4967.26,23855.120000000003 4967.235,23855.120000000003 4967.235,23856.120000000003 4966.235000000001,23856.120000000003 4966.235000000001,23856.145 4951.215,23856.145 4951.215,23857.894999999997 4966.235000000001,23857.894999999997 4966.235000000001,23857.92 4967.235,23857.92 4967.235,23858.450000000004 4969.035,23858.450000000004 4969.035,23801.579999999998"/>
<polygon class="l205d0" points="4965.4349999999995,23828.985 4965.4349999999995,23833.53 4966.335,23833.53 4966.335,23828.985"/>
<polygon class="l205d0" points="5029.065,23801.579999999998 5029.065,23802.225 5019.975,23802.225 5019.975,23803.36 5023.135,23803.36 5023.135,23803.515000000003 5024.96,23803.515000000003 5024.96,23803.38 5028.0650000000005,23803.38 5028.0650000000005,23803.515000000003 5029.065,23803.515000000003 5029.065,23809.725 5028.0650000000005,23809.725 5028.0650000000005,23809.949999999997 5025.79,23809.949999999997 5025.79,23810.85 5028.0650000000005,23810.85 5028.0650000000005,23811.075 5029.065,23811.075 5029.065,23817.285000000003 5028.0650000000005,23817.285000000003 5028.0650000000005,23817.420000000002 5024.96,23817.420000000002 5024.96,23817.285000000003 5023.135,23817.285000000003 5023.135,23817.440000000002 5019.975,23817.440000000002 5019.975,23818.575 5029.065,23818.575 5029.065,23819.864999999998 5019.975,23819.864999999998 5019.975,23821.0 5023.135,23821.0 5023.135,23821.155 5024.96,23821.155 5024.96,23821.019999999997 5028.0650000000005,23821.019999999997 5028.0650000000005,23821.155 5029.065,23821.155 5029.065,23827.364999999998 5028.0650000000005,23827.364999999998 5028.0650000000005,23827.59 5025.79,23827.59 5025.79,23828.49 5028.0650000000005,23828.49 5028.0650000000005,23828.715000000004 5029.065,23828.715000000004 5029.065,23834.925 5028.0650000000005,23834.925 5028.0650000000005,23835.059999999998 5024.96,23835.059999999998 5024.96,23834.925 5023.135,23834.925 5023.135,23835.08 5019.975,23835.08 5019.975,23836.215000000004 5029.065,23836.215000000004 5029.065,23837.505 5019.975,23837.505 5019.975,23838.64 5023.135,23838.64 5023.135,23838.795 5024.96,23838.795 5024.96,23838.66 5028.0650000000005,23838.66 5028.0650000000005,23838.795 5029.065,23838.795 5029.065,23845.005 5028.0650000000005,23845.005 5028.0650000000005,23845.230000000003 5025.79,23845.230000000003 5025.79,23846.129999999997 5028.0650000000005,23846.129999999997 5028.0650000000005,23846.355 5029.065,23846.355 5029.065,23852.565 5028.0650000000005,23852.565 5028.0650000000005,23852.7 5024.96,23852.7 5024.96,23852.565 5023.135,23852.565 5023.135,23852.72 5019.975,23852.72 5019.975,23853.915 5029.065,23853.915 5029.065,23856.120000000003 5016.15,23856.120000000003 5016.15,23853.915 5016.025000000001,23853.915 5016.025000000001,23850.295000000002 5014.35,23850.295000000002 5014.35,23858.450000000004 5016.15,23858.450000000004 5016.15,23857.92 5029.065,23857.92 5029.065,23858.450000000004 5030.865,23858.450000000004 5030.865,23801.579999999998"/>
<polygon class="l205d0" points="4945.795,23828.985 4945.795,23833.53 4946.895,23833.53 4946.895,23828.985"/>
<polygon class="l205d0" points="4923.245,23801.579999999998 4923.245,23858.450000000004 4924.145,23858.450000000004 4924.145,23857.92 4926.575000000001,23857.92 4926.575000000001,23856.120000000003 4924.145,23856.120000000003 4924.145,23848.47 4926.575000000001,23848.47 4926.575000000001,23846.67 4924.145,23846.67 4924.145,23839.02 4926.575000000001,23839.02 4926.575000000001,23837.22 4924.145,23837.22 4924.145,23829.57 4926.575000000001,23829.57 4926.575000000001,23827.77 4924.145,23827.77 4924.145,23820.120000000003 4926.575000000001,23820.120000000003 4926.575000000001,23818.32 4924.145,23818.32 4924.145,23810.67 4926.575000000001,23810.67 4926.575000000001,23808.870000000003 4924.145,23808.870000000003 4924.145,23801.579999999998"/>
<polygon class="l205d0" points="4957.695,23829.945000000003 4957.695,23831.175 4962.735000000001,23831.175 4962.735000000001,23829.945000000003"/>
<polygon class="l205d0" points="4939.92,23829.945000000003 4939.92,23831.175 4943.07,23831.175 4943.07,23829.945000000003"/>
<polygon class="l205d0" points="4932.97,23822.46 4932.97,23823.46 4932.945000000001,23823.46 4932.945000000001,23832.620000000003 4932.97,23832.620000000003 4932.97,23833.620000000003 4937.22,23833.620000000003 4937.22,23832.465000000004 4934.07,23832.465000000004 4934.07,23831.63 4933.845,23831.63 4933.845,23829.49 4934.07,23829.49 4934.07,23828.655 4937.22,23828.655 4937.22,23827.425 4934.07,23827.425 4934.07,23826.59 4933.845,23826.59 4933.845,23824.45 4934.07,23824.45 4934.07,23823.614999999998 4937.22,23823.614999999998 4937.22,23822.46"/>
<polygon class="l205d0" points="4954.3099999999995,23829.885 4954.3099999999995,23829.945000000003 4950.36,23829.945000000003 4950.36,23831.175 4954.1849999999995,23831.175 4954.1849999999995,23832.010000000002 4954.435,23832.010000000002 4954.435,23833.485 4954.41,23833.485 4954.41,23834.585000000003 4957.56,23834.585000000003 4957.56,23833.485 4955.535,23833.485 4955.535,23829.885"/>
<polygon class="l205d0" points="4948.335,23822.325 4948.335,23833.755 4953.51,23833.755 4953.51,23832.465000000004 4949.685,23832.465000000004 4949.685,23831.63 4949.435,23831.63 4949.435,23829.49 4949.685,23829.49 4949.685,23828.655 4953.51,23828.655 4953.51,23827.425 4949.685,23827.425 4949.685,23826.59 4949.435,23826.59 4949.435,23824.45 4949.685,23824.45 4949.685,23823.614999999998 4953.51,23823.614999999998 4953.51,23822.325"/>
<polygon class="l205d0" points="4978.62,23829.434999999998 4978.62,23832.405 4974.615,23832.405 4974.615,23833.535000000003 4978.885,23833.535000000003 4978.885,23833.55 4979.885,23833.55 4979.885,23832.530000000002 4979.745000000001,23832.530000000002 4979.745000000001,23830.335 4982.705,23830.335 4982.705,23830.56 4983.565,23830.56 4983.565,23831.175 4993.785,23831.175 4993.785,23829.945000000003 4985.605,23829.945000000003 4985.605,23829.885 4984.83,23829.885 4984.83,23829.46 4983.83,23829.46 4983.83,23829.434999999998"/>
<polygon class="l205d0" points="5003.675,23836.185 5003.675,23836.21 4999.275,23836.21 4999.275,23836.41 4989.96,23836.41 4989.96,23837.31 4999.275,23837.31 4999.275,23837.510000000002 5003.675,23837.510000000002 5003.675,23837.535000000003 5004.675,23837.535000000003 5004.675,23836.185"/>
<polygon class="l205d0" points="4999.275,23838.865 4999.275,23840.14 5000.400000000001,23840.14 5000.400000000001,23840.190000000002 5001.3,23840.190000000002 5001.3,23843.835 5002.525,23843.835 5002.525,23843.775 5012.415,23843.775 5012.415,23844.33 5013.64,23844.33 5013.64,23844.555 5020.245,23844.555 5020.245,23844.33 5027.085,23844.33 5027.085,23839.965000000004 5025.735000000001,23839.965000000004 5025.735000000001,23840.965 5025.985,23840.965 5025.985,23843.43 5019.995,23843.43 5019.995,23843.205 5018.22,23843.205 5018.22,23842.43 5018.005,23842.43 5018.005,23838.885000000002 5017.095,23838.885000000002 5017.095,23842.43 5016.87,23842.43 5016.87,23843.205 5013.765,23843.205 5013.765,23842.559999999998 5012.765,23842.559999999998 5012.765,23842.545 5005.575,23842.545 5005.575,23842.485 5002.65,23842.485 5002.65,23841.710000000003 5002.4,23841.710000000003 5002.4,23840.190000000002 5002.425,23840.190000000002 5002.425,23838.865"/>
<polygon class="l205d0" points="5003.325000000001,23850.405 5003.325000000001,23851.754999999997 5005.35,23851.754999999997 5005.35,23852.61 5005.415,23852.61 5005.415,23853.8525 5006.575000000001,23853.8525 5006.575000000001,23853.915 5008.725,23853.915 5008.725,23852.625000000004 5006.7,23852.625000000004 5006.7,23851.710000000003 5006.485000000001,23851.710000000003 5006.485000000001,23850.405"/>
<polygon class="l205d0" points="5014.35,23832.655 5014.35,23841.065 5016.025000000001,23841.065 5016.025000000001,23837.505 5016.15,23837.505 5016.15,23836.215000000004 5016.025000000001,23836.215000000004 5016.025000000001,23832.655"/>
<polygon class="l205d0" points="4973.985000000001,23836.41 4973.985000000001,23837.31 4980.195,23837.31 4980.195,23836.41"/>
<polygon class="l205d0" points="4983.31,23850.370000000003 4983.31,23852.420000000002 4983.21,23852.420000000002 4983.21,23856.120000000003 4981.195,23856.120000000003 4981.195,23856.245 4973.97,23856.245 4973.97,23857.795000000002 4981.195,23857.795000000002 4981.195,23857.92 4983.21,23857.92 4983.21,23858.450000000004 4985.01,23858.450000000004 4985.01,23850.370000000003"/>
<polygon class="l205d0" points="5021.91,23831.190000000002 5021.91,23832.089999999997 5022.91,23832.089999999997 5022.91,23832.315 5025.06,23832.315 5025.06,23831.215000000004 5024.06,23831.215000000004 5024.06,23831.190000000002"/>
<polygon class="l205d0" points="5021.91,23848.83 5021.91,23849.73 5022.91,23849.73 5022.91,23849.955 5025.06,23849.955 5025.06,23848.855 5024.06,23848.855 5024.06,23848.83"/>
<polygon class="l205d0" points="5013.64,23846.805 5013.64,23847.03 5012.415,23847.03 5012.415,23847.585 5002.525,23847.585 5002.525,23847.525 5001.3,23847.525 5001.3,23851.170000000002 5000.400000000001,23851.170000000002 5000.400000000001,23851.219999999998 4999.275,23851.219999999998 4999.275,23852.52 5002.425,23852.52 5002.425,23851.170000000002 5002.4,23851.170000000002 5002.4,23849.65 5002.65,23849.65 5002.65,23848.875000000004 5005.575,23848.875000000004 5005.575,23848.815 5012.765,23848.815 5012.765,23848.800000000003 5013.765,23848.800000000003 5013.765,23848.155000000002 5016.87,23848.155000000002 5016.87,23848.93 5017.095,23848.93 5017.095,23852.475 5018.005,23852.475 5018.005,23848.93 5018.22,23848.93 5018.22,23848.155000000002 5019.995,23848.155000000002 5019.995,23847.93 5025.985,23847.93 5025.985,23850.394999999997 5025.735000000001,23850.394999999997 5025.735000000001,23851.395000000004 5027.085,23851.395000000004 5027.085,23847.03 5020.245,23847.03 5020.245,23846.805"/>
<polygon class="l205d0" points="5018.985000000001,23839.765000000003 5018.985000000001,23841.165 5020.245,23841.165 5020.245,23840.7 5022.135,23840.7 5022.135,23839.765000000003"/>
<polygon class="l205d0" points="4973.985000000001,23854.320000000003 4973.985000000001,23855.22 4980.195,23855.22 4980.195,23854.320000000003"/>
<polygon class="l205d0" points="4973.985000000001,23834.589999999997 4973.985000000001,23835.51 4980.195,23835.51 4980.195,23834.589999999997"/>
<polygon class="l205d0" points="5003.37,23845.065 5003.37,23846.295 5006.5199999999995,23846.295 5006.5199999999995,23845.065"/>
<polygon class="l205d0" points="4973.985000000001,23838.21 4973.985000000001,23839.13 4980.195,23839.13 4980.195,23838.21"/>
<polygon class="l205d0" points="4996.17,23830.965 4996.17,23832.315 4998.32,23832.315 4998.32,23832.265000000003 4999.32,23832.265000000003 4999.32,23830.965"/>
<polygon class="l205d0" points="4996.17,23848.605000000003 4996.17,23849.955 4998.32,23849.955 4998.32,23849.905 4999.32,23849.905 4999.32,23848.605000000003"/>
<polygon class="l205d0" points="5022.91,23841.405 5022.91,23841.63 5021.91,23841.63 5021.91,23842.530000000002 5024.06,23842.530000000002 5024.06,23842.505 5025.06,23842.505 5025.06,23841.405"/>
<polygon class="l205d0" points="4980.780000000001,23831.235 4980.780000000001,23832.045 4981.135,23832.045 4981.135,23833.935 4982.19,23833.935 4982.19,23831.235"/>
<polygon class="l205d0" points="4980.780000000001,23848.875000000004 4980.780000000001,23849.684999999998 4981.135,23849.684999999998 4981.135,23851.575000000004 4982.19,23851.575000000004 4982.19,23848.875000000004"/>
<polygon class="l205d0" points="4987.81,23832.465000000004 4987.81,23832.629999999997 4986.8099999999995,23832.629999999997 4986.8099999999995,23841.09 4987.81,23841.09 4987.81,23841.255 4993.785,23841.255 4993.785,23840.17 4988.585,23840.17 4988.585,23833.55 4993.785,23833.55 4993.785,23832.465000000004"/>
<polygon class="l205d0" points="5018.985000000001,23832.555 5018.985000000001,23833.955 5022.135,23833.955 5022.135,23833.02 5020.245,23833.02 5020.245,23832.555"/>
<polygon class="l205d0" points="5018.985000000001,23850.195 5018.985000000001,23851.595 5022.135,23851.595 5022.135,23850.660000000003 5020.245,23850.660000000003 5020.245,23850.195"/>
<polygon class="l205d0" points="5003.325000000001,23832.765 5003.325000000001,23834.115 5005.35,23834.115 5005.35,23834.969999999998 5005.575,23834.969999999998 5005.575,23836.215000000004 5008.725,23836.215000000004 5008.725,23834.985 5006.7,23834.985 5006.7,23834.07 5006.485000000001,23834.07 5006.485000000001,23832.765"/>
<polygon class="l205d0" points="4978.62,23847.075 4978.62,23850.045 4974.615,23850.045 4974.615,23851.260000000002 4979.885,23851.260000000002 4979.885,23850.17 4979.745000000001,23850.17 4979.745000000001,23847.975000000002 4982.705,23847.975000000002 4982.705,23848.2 4983.565,23848.2 4983.565,23848.815 4993.785,23848.815 4993.785,23847.585 4985.605,23847.585 4985.605,23847.525 4984.83,23847.525 4984.83,23847.1 4983.83,23847.1 4983.83,23847.075"/>
<polygon class="l205d0" points="4973.985000000001,23852.43 4973.985000000001,23853.420000000002 4980.195,23853.420000000002 4980.195,23852.43"/>
<polygon class="l205d0" points="4986.8099999999995,23845.065 4986.8099999999995,23846.295 4993.785,23846.295 4993.785,23845.065"/>
<polygon class="l205d0" points="4973.97,23845.005 4973.97,23846.355 4977.700000000001,23846.355 4977.700000000001,23846.129999999997 4979.69,23846.129999999997 4979.69,23845.230000000003 4977.700000000001,23845.230000000003 4977.700000000001,23845.005"/>
<polygon class="l205d0" points="4989.96,23838.21 4989.96,23839.13 4994.785,23839.13 4994.785,23839.335 4998.015,23839.335 4998.015,23838.235 4995.785,23838.235 4995.785,23838.21"/>
<polygon class="l205d0" points="4994.785,23852.295 4994.785,23852.43 4989.96,23852.43 4989.96,23853.420000000002 4995.785,23853.420000000002 4995.785,23853.395 4998.015,23853.395 4998.015,23852.295"/>
<polygon class="l205d0" points="4981.135,23839.785000000003 4981.135,23841.675 4980.780000000001,23841.675 4980.780000000001,23842.485 4982.19,23842.485 4982.19,23839.785000000003"/>
<polygon class="l205d0" points="5005.575,23837.505 5005.575,23838.75 5005.35,23838.75 5005.35,23839.605000000003 5003.325000000001,23839.605000000003 5003.325000000001,23840.954999999998 5006.485000000001,23840.954999999998 5006.485000000001,23839.65 5006.7,23839.65 5006.7,23838.735 5008.725,23838.735 5008.725,23837.505"/>
<polygon class="l205d0" points="5007.465,23832.465000000004 5007.465,23833.695000000003 5009.75,23833.695000000003 5009.75,23833.755 5010.75,23833.755 5010.75,23839.965000000004 5009.75,23839.965000000004 5009.75,23840.025 5007.465,23840.025 5007.465,23841.255 5011.55,23841.255 5011.55,23841.09 5012.55,23841.09 5012.55,23832.629999999997 5011.55,23832.629999999997 5011.55,23832.465000000004"/>
<polygon class="l205d0" points="4996.17,23841.405 4996.17,23842.755 4999.32,23842.755 4999.32,23841.455 4998.32,23841.455 4998.32,23841.405"/>
<polygon class="l205d0" points="4980.610000000001,23845.230000000003 4980.610000000001,23846.129999999997 4983.75,23846.129999999997 4983.75,23845.230000000003"/>
<polygon class="l205d0" points="5021.73,23845.230000000003 5021.73,23846.129999999997 5024.87,23846.129999999997 5024.87,23845.230000000003"/>
<polygon class="l205d0" points="4994.785,23834.385000000002 4994.785,23834.589999999997 4989.96,23834.589999999997 4989.96,23835.51 4995.785,23835.51 4995.785,23835.485 4998.015,23835.485 4998.015,23834.385000000002"/>
<polygon class="l205d0" points="4978.885,23840.17 4978.885,23840.185 4974.615,23840.185 4974.615,23841.315 4978.62,23841.315 4978.62,23844.285 4983.83,23844.285 4983.83,23844.26 4984.83,23844.26 4984.83,23843.835 4985.605,23843.835 4985.605,23843.775 4993.785,23843.775 4993.785,23842.545 4983.565,23842.545 4983.565,23843.160000000003 4982.705,23843.160000000003 4982.705,23843.385 4979.745000000001,23843.385 4979.745000000001,23841.190000000002 4979.885,23841.190000000002 4979.885,23840.17"/>
<polygon class="l205d0" points="4987.81,23850.105 4987.81,23850.27 4986.8099999999995,23850.27 4986.8099999999995,23858.450000000004 4988.585,23858.450000000004 4988.585,23857.92 4989.610000000001,23857.92 4989.610000000001,23857.795000000002 5006.575000000001,23857.795000000002 5006.575000000001,23857.92 5010.75,23857.92 5010.75,23858.450000000004 5012.55,23858.450000000004 5012.55,23850.27 5011.55,23850.27 5011.55,23850.105 5007.465,23850.105 5007.465,23851.335 5009.75,23851.335 5009.75,23851.395000000004 5010.75,23851.395000000004 5010.75,23856.120000000003 5006.575000000001,23856.120000000003 5006.575000000001,23856.245 4989.610000000001,23856.245 4989.610000000001,23856.120000000003 4988.585,23856.120000000003 4988.585,23851.260000000002 4993.785,23851.260000000002 4993.785,23850.105"/>
<polygon class="l205d0" points="5007.465,23845.065 5007.465,23846.295 5011.55,23846.295 5011.55,23846.129999999997 5012.55,23846.129999999997 5012.55,23845.230000000003 5011.55,23845.230000000003 5011.55,23845.065"/>
<polygon class="l205d0" points="4999.275,23854.095 4999.275,23854.320000000003 4989.96,23854.320000000003 4989.96,23855.22 5000.275000000001,23855.22 5000.275000000001,23855.195 5004.675,23855.195 5004.675,23854.1575 5003.675,23854.1575 5003.675,23854.095"/>
<polygon class="l205d0" points="4983.31,23832.730000000003 4983.31,23834.935 4983.21,23834.935 4983.21,23838.21 4983.31,23838.21 4983.31,23840.99 4985.01,23840.99 4985.01,23832.730000000003"/>
<polygon class="l205d0" points="4995.865,23845.005 4995.865,23846.355 4999.015,23846.355 4999.015,23845.005"/>
<polygon class="l205d0" points="4914.0375,23839.47 4914.0375,23842.395 4916.360000000001,23842.395 4916.360000000001,23841.54 4915.0275,23841.54 4915.0275,23839.47"/>
<polygon class="l205d0" points="4945.795,23840.190000000002 4945.795,23844.735 4946.895,23844.735 4946.895,23840.190000000002"/>
<polygon class="l205d0" points="4945.795,23846.625 4945.795,23851.170000000002 4946.895,23851.170000000002 4946.895,23846.625"/>
<polygon class="l205d0" points="4920.4275,23848.7575 4920.4275,23850.27 4922.2825,23850.27 4922.2825,23848.7575"/>
<polygon class="l205d0" points="4915.9275,23839.3075 4915.9275,23840.82 4917.7825,23840.82 4917.7825,23839.3075"/>
<polygon class="l205d0" points="4957.695,23842.545 4957.695,23843.775 4962.735000000001,23843.775 4962.735000000001,23842.545"/>
<polygon class="l205d0" points="4957.695,23847.585 4957.695,23848.815 4962.735000000001,23848.815 4962.735000000001,23847.585"/>
<polygon class="l205d0" points="4915.9275,23835.42 4915.9275,23836.932500000003 4917.7825,23836.932500000003 4917.7825,23835.42"/>
<polygon class="l205d0" points="4939.92,23842.545 4939.92,23843.775 4943.07,23843.775 4943.07,23842.545"/>
<polygon class="l205d0" points="4915.9275,23854.320000000003 4915.9275,23855.8325 4917.7825,23855.8325 4917.7825,23854.320000000003"/>
<polygon class="l205d0" points="4939.92,23847.585 4939.92,23848.815 4943.07,23848.815 4943.07,23847.585"/>
<polygon class="l205d0" points="4913.74,23837.58 4913.74,23838.66 4915.2699999999995,23838.66 4915.2699999999995,23838.57 4916.215,23838.57 4916.215,23837.67 4915.2699999999995,23837.67 4915.2699999999995,23837.58"/>
<polygon class="l205d0" points="4958.64,23839.965000000004 4958.64,23841.255 4963.41,23841.255 4963.41,23842.089999999997 4963.635,23842.089999999997 4963.635,23844.230000000003 4963.41,23844.230000000003 4963.41,23845.065 4958.37,23845.065 4958.37,23846.295 4963.41,23846.295 4963.41,23847.13 4963.635,23847.13 4963.635,23849.27 4963.41,23849.27 4963.41,23850.105 4958.64,23850.105 4958.64,23851.395000000004 4964.51,23851.395000000004 4964.51,23850.394999999997 4964.535,23850.394999999997 4964.535,23846.625 4964.51,23846.625 4964.51,23844.735 4964.535,23844.735 4964.535,23840.965 4964.51,23840.965 4964.51,23839.965000000004"/>
<polygon class="l205d0" points="4918.24,23847.03 4918.24,23848.11 4919.77,23848.11 4919.77,23848.02 4920.715,23848.02 4920.715,23847.12 4919.77,23847.12 4919.77,23847.03"/>
<polygon class="l205d0" points="4920.635,23836.05 4920.635,23836.95 4920.87,23836.95 4920.87,23839.29 4920.635,23839.29 4920.635,23840.190000000002 4922.075000000001,23840.190000000002 4922.075000000001,23839.29 4921.84,23839.29 4921.84,23836.95 4922.075000000001,23836.95 4922.075000000001,23836.05"/>
<polygon class="l205d0" points="4916.135,23845.5 4916.135,23846.399999999998 4916.37,23846.399999999998 4916.37,23848.74 4916.135,23848.74 4916.135,23849.64 4917.575,23849.64 4917.575,23848.74 4917.34,23848.74 4917.34,23846.399999999998 4917.575,23846.399999999998 4917.575,23845.5"/>
<polygon class="l205d0" points="4918.5375,23848.92 4918.5375,23851.844999999998 4920.860000000001,23851.844999999998 4920.860000000001,23850.99 4919.5275,23850.99 4919.5275,23848.92"/>
<polygon class="l205d0" points="4914.0375,23833.845 4914.0375,23836.77 4915.0275,23836.77 4915.0275,23834.700000000004 4916.360000000001,23834.700000000004 4916.360000000001,23833.845"/>
<polygon class="l205d0" points="4918.5375,23843.295 4918.5375,23846.219999999998 4919.5275,23846.219999999998 4919.5275,23844.15 4920.860000000001,23844.15 4920.860000000001,23843.295"/>
<polygon class="l205d0" points="4914.0375,23852.745 4914.0375,23855.67 4915.0275,23855.67 4915.0275,23853.600000000002 4916.360000000001,23853.600000000002 4916.360000000001,23852.745"/>
<polygon class="l205d0" points="4918.6825,23839.47 4918.6825,23841.54 4917.35,23841.54 4917.35,23842.395 4919.672500000001,23842.395 4919.672500000001,23839.47"/>
<polygon class="l205d0" points="4954.41,23839.135000000002 4954.41,23840.235 4954.435,23840.235 4954.435,23841.710000000003 4954.1849999999995,23841.710000000003 4954.1849999999995,23842.545 4950.36,23842.545 4950.36,23843.775 4954.3099999999995,23843.775 4954.3099999999995,23843.835 4955.535,23843.835 4955.535,23840.235 4957.56,23840.235 4957.56,23839.135000000002"/>
<polygon class="l205d0" points="4938.12,23839.74 4938.12,23842.545 4934.745000000001,23842.545 4934.745000000001,23843.775 4938.02,23843.775 4938.02,23843.835 4939.0199999999995,23843.835 4939.0199999999995,23839.74"/>
<polygon class="l205d0" points="4920.635,23854.949999999997 4920.635,23855.85 4920.87,23855.85 4920.87,23858.19 4920.635,23858.19 4920.635,23858.450000000004 4922.075000000001,23858.450000000004 4922.075000000001,23858.19 4921.84,23858.19 4921.84,23855.85 4922.075000000001,23855.85 4922.075000000001,23854.949999999997"/>
<polygon class="l205d0" points="4955.54,23844.9 4954.66,23845.78 4955.62,23846.739999999998 4957.38,23846.739999999998"/>
<polygon class="l205d0" points="4915.9825,23843.160000000003 4915.9825,23844.7075 4917.7275,23844.7075 4917.7275,23843.160000000003"/>
<polygon class="l205d0" points="4915.9825,23831.532499999998 4915.9825,23833.08 4917.7275,23833.08 4917.7275,23831.532499999998"/>
<polygon class="l205d0" points="4915.9825,23850.432500000003 4915.9825,23851.98 4917.7275,23851.98 4917.7275,23850.432500000003"/>
<polygon class="l205d0" points="4920.4825,23840.9825 4920.4825,23842.530000000002 4922.2275,23842.530000000002 4922.2275,23840.9825"/>
<polygon class="l205d0" points="4920.4825,23833.71 4920.4825,23835.257500000003 4922.2275,23835.257500000003 4922.2275,23833.71"/>
<polygon class="l205d0" points="4933.3949999999995,23853.510000000002 4933.3949999999995,23854.760000000002 4945.015,23854.760000000002 4945.015,23854.86 4950.215,23854.86 4950.215,23854.760000000002 4965.885,23854.760000000002 4965.885,23853.510000000002 4958.64,23853.510000000002 4958.64,23853.61 4953.41,23853.61 4953.41,23853.510000000002 4940.02,23853.510000000002 4940.02,23853.61 4937.22,23853.61 4937.22,23853.510000000002"/>
<polygon class="l205d0" points="4920.4825,23852.61 4920.4825,23854.1575 4922.2275,23854.1575 4922.2275,23852.61"/>
<polygon class="l205d0" points="4917.35,23833.845 4917.35,23834.700000000004 4918.6825,23834.700000000004 4918.6825,23836.77 4919.672500000001,23836.77 4919.672500000001,23833.845"/>
<polygon class="l205d0" points="4948.335,23839.965000000004 4948.335,23851.395000000004 4953.51,23851.395000000004 4953.51,23850.105 4949.685,23850.105 4949.685,23849.27 4949.435,23849.27 4949.435,23847.13 4949.685,23847.13 4949.685,23846.295 4953.51,23846.295 4953.51,23845.065 4949.685,23845.065 4949.685,23844.230000000003 4949.435,23844.230000000003 4949.435,23842.089999999997 4949.685,23842.089999999997 4949.685,23841.255 4953.51,23841.255 4953.51,23839.965000000004"/>
<polygon class="l205d0" points="4917.35,23852.745 4917.35,23853.600000000002 4918.6825,23853.600000000002 4918.6825,23855.67 4919.672500000001,23855.67 4919.672500000001,23852.745"/>
<polygon class="l205d0" points="4932.97,23840.100000000002 4932.97,23841.100000000002 4932.945000000001,23841.100000000002 4932.945000000001,23850.394999999997 4932.97,23850.394999999997 4932.97,23851.395000000004 4937.22,23851.395000000004 4937.22,23850.105 4934.07,23850.105 4934.07,23849.27 4933.845,23849.27 4933.845,23847.13 4934.07,23847.13 4934.07,23846.295 4937.22,23846.295 4937.22,23845.065 4934.07,23845.065 4934.07,23844.230000000003 4933.845,23844.230000000003 4933.845,23842.089999999997 4934.07,23842.089999999997 4934.07,23841.255 4937.22,23841.255 4937.22,23840.100000000002"/>
<polygon class="l205d0" points="4938.02,23847.525 4938.02,23847.585 4934.745000000001,23847.585 4934.745000000001,23848.815 4937.895,23848.815 4937.895,23849.65 4938.12,23849.65 4938.12,23852.25 4939.0199999999995,23852.25 4939.0199999999995,23848.525 4939.005,23848.525 4939.005,23847.525"/>
<polygon class="l205d0" points="4939.92,23840.100000000002 4939.92,23841.255 4943.745,23841.255 4943.745,23842.089999999997 4943.97,23842.089999999997 4943.97,23844.230000000003 4943.745,23844.230000000003 4943.745,23845.065 4939.92,23845.065 4939.92,23846.295 4943.745,23846.295 4943.745,23847.13 4943.97,23847.13 4943.97,23849.27 4943.745,23849.27 4943.745,23850.105 4939.92,23850.105 4939.92,23851.395000000004 4944.845,23851.395000000004 4944.845,23850.394999999997 4944.87,23850.394999999997 4944.87,23846.625 4944.845,23846.625 4944.845,23844.735 4944.87,23844.735 4944.87,23841.100000000002 4944.845,23841.100000000002 4944.845,23840.100000000002"/>
<polygon class="l205d0" points="4965.4349999999995,23840.190000000002 4965.4349999999995,23844.735 4966.335,23844.735 4966.335,23840.190000000002"/>
<polygon class="l205d0" points="4965.4349999999995,23846.625 4965.4349999999995,23851.170000000002 4966.335,23851.170000000002 4966.335,23846.625"/>
<polygon class="l205d0" points="4918.44,23837.58 4918.44,23837.67 4917.495,23837.67 4917.495,23838.57 4918.44,23838.57 4918.44,23838.66 4919.97,23838.66 4919.97,23837.58"/>
<polygon class="l205d0" points="4918.5375,23830.02 4918.5375,23832.945 4920.860000000001,23832.945 4920.860000000001,23832.089999999997 4919.5275,23832.089999999997 4919.5275,23830.02"/>
<polygon class="l205d0" points="4920.4275,23844.870000000003 4920.4275,23846.3825 4922.2825,23846.3825 4922.2825,23844.870000000003"/>
<polygon class="l205d0" points="4954.3099999999995,23847.525 4954.3099999999995,23847.585 4950.36,23847.585 4950.36,23848.815 4954.1849999999995,23848.815 4954.1849999999995,23849.65 4954.435,23849.65 4954.435,23851.125 4954.41,23851.125 4954.41,23852.375 4957.56,23852.375 4957.56,23851.125 4955.535,23851.125 4955.535,23847.525"/>
<polygon class="l205d0" points="4914.0375,23814.945000000003 4914.0375,23817.870000000003 4915.0275,23817.870000000003 4915.0275,23815.8 4916.360000000001,23815.8 4916.360000000001,23814.945000000003"/>
<polygon class="l205d0" points="4957.695,23807.265000000003 4957.695,23808.495000000003 4962.735000000001,23808.495000000003 4962.735000000001,23807.265000000003"/>
<polygon class="l205d0" points="4957.695,23812.305 4957.695,23813.535000000003 4962.735000000001,23813.535000000003 4962.735000000001,23812.305"/>
<polygon class="l205d0" points="4957.695,23824.905 4957.695,23826.135 4962.735000000001,23826.135 4962.735000000001,23824.905"/>
<polygon class="l205d0" points="4918.5375,23824.395 4918.5375,23827.32 4919.5275,23827.32 4919.5275,23825.25 4920.860000000001,23825.25 4920.860000000001,23824.395"/>
<polygon class="l205d0" points="4918.44,23818.68 4918.44,23818.77 4917.495,23818.77 4917.495,23819.670000000002 4918.44,23819.670000000002 4918.44,23819.760000000002 4919.97,23819.760000000002 4919.97,23818.68"/>
<polygon class="l205d0" points="4918.24,23809.230000000003 4918.24,23810.309999999998 4919.77,23810.309999999998 4919.77,23810.22 4920.715,23810.22 4920.715,23809.320000000003 4919.77,23809.320000000003 4919.77,23809.230000000003"/>
<polygon class="l205d0" points="4939.92,23807.265000000003 4939.92,23808.495000000003 4943.07,23808.495000000003 4943.07,23807.265000000003"/>
<polygon class="l205d0" points="4939.92,23812.305 4939.92,23813.535000000003 4943.07,23813.535000000003 4943.07,23812.305"/>
<polygon class="l205d0" points="4939.92,23824.905 4939.92,23826.135 4943.07,23826.135 4943.07,23824.905"/>
<polygon class="l205d0" points="4913.74,23818.68 4913.74,23819.760000000002 4915.2699999999995,23819.760000000002 4915.2699999999995,23819.670000000002 4916.215,23819.670000000002 4916.215,23818.77 4915.2699999999995,23818.77 4915.2699999999995,23818.68"/>
<polygon class="l205d0" points="4920.4275,23807.07 4920.4275,23808.582500000004 4922.2825,23808.582500000004 4922.2825,23807.07"/>
<polygon class="l205d0" points="4920.4275,23825.97 4920.4275,23827.482500000002 4922.2825,23827.482500000002 4922.2825,23825.97"/>
<polygon class="l205d0" points="4918.24,23828.13 4918.24,23829.210000000003 4919.77,23829.210000000003 4919.77,23829.120000000003 4920.715,23829.120000000003 4920.715,23828.22 4919.77,23828.22 4919.77,23828.13"/>
<polygon class="l205d0" points="4932.97,23804.82 4932.97,23805.82 4932.945000000001,23805.82 4932.945000000001,23814.98 4932.97,23814.98 4932.97,23815.98 4937.22,23815.98 4937.22,23814.825 4934.07,23814.825 4934.07,23813.989999999998 4933.845,23813.989999999998 4933.845,23811.85 4934.07,23811.85 4934.07,23811.015000000003 4937.22,23811.015000000003 4937.22,23809.785000000003 4934.07,23809.785000000003 4934.07,23808.95 4933.845,23808.95 4933.845,23806.81 4934.07,23806.81 4934.07,23805.975 4937.22,23805.975 4937.22,23804.82"/>
<polygon class="l205d0" points="4920.4275,23810.9575 4920.4275,23812.469999999998 4922.2825,23812.469999999998 4922.2825,23810.9575"/>
<polygon class="l205d0" points="4915.9825,23805.36 4915.9825,23806.9075 4917.7275,23806.9075 4917.7275,23805.36"/>
<polygon class="l205d0" points="4915.9825,23824.26 4915.9825,23825.807500000003 4917.7275,23825.807500000003 4917.7275,23824.26"/>
<polygon class="l205d0" points="4954.3099999999995,23812.245000000003 4954.3099999999995,23812.305 4950.36,23812.305 4950.36,23813.535000000003 4954.1849999999995,23813.535000000003 4954.1849999999995,23814.37 4954.435,23814.37 4954.435,23815.845 4954.41,23815.845 4954.41,23816.945 4957.56,23816.945 4957.56,23815.845 4955.535,23815.845 4955.535,23812.245000000003"/>
<polygon class="l205d0" points="4920.635,23801.579999999998 4920.635,23802.39 4922.075000000001,23802.39 4922.075000000001,23801.579999999998"/>
<polygon class="l205d0" points="4915.9825,23812.6325 4915.9825,23814.18 4917.7275,23814.18 4917.7275,23812.6325"/>
<polygon class="l205d0" points="4938.12,23804.46 4938.12,23807.265000000003 4934.745000000001,23807.265000000003 4934.745000000001,23808.495000000003 4938.02,23808.495000000003 4938.02,23808.555 4939.0199999999995,23808.555 4939.0199999999995,23804.46"/>
<polygon class="l205d0" points="4915.9275,23820.4075 4915.9275,23821.92 4917.7825,23821.92 4917.7825,23820.4075"/>
<polygon class="l205d0" points="4920.4825,23803.182500000003 4920.4825,23804.73 4922.2275,23804.73 4922.2275,23803.182500000003"/>
<polygon class="l205d0" points="4920.4825,23822.0825 4920.4825,23823.629999999997 4922.2275,23823.629999999997 4922.2275,23822.0825"/>
<polygon class="l205d0" points="4938.02,23812.245000000003 4938.02,23812.305 4934.745000000001,23812.305 4934.745000000001,23813.535000000003 4938.12,23813.535000000003 4938.12,23816.34 4939.0199999999995,23816.34 4939.0199999999995,23812.245000000003"/>
<polygon class="l205d0" points="4920.4825,23814.81 4920.4825,23816.3575 4922.2275,23816.3575 4922.2275,23814.81"/>
<polygon class="l205d0" points="4915.9275,23816.52 4915.9275,23818.0325 4917.7825,23818.0325 4917.7825,23816.52"/>
<polygon class="l205d0" points="4938.12,23822.1 4938.12,23824.905 4934.745000000001,23824.905 4934.745000000001,23826.135 4938.02,23826.135 4938.02,23826.195000000003 4939.0199999999995,23826.195000000003 4939.0199999999995,23822.1"/>
<polygon class="l205d0" points="4917.35,23814.945000000003 4917.35,23815.8 4918.6825,23815.8 4918.6825,23817.870000000003 4919.672500000001,23817.870000000003 4919.672500000001,23814.945000000003"/>
<polygon class="l205d0" points="4914.0375,23801.67 4914.0375,23804.595 4916.360000000001,23804.595 4916.360000000001,23803.74 4915.0275,23803.74 4915.0275,23801.67"/>
<polygon class="l205d0" points="4958.64,23804.684999999998 4958.64,23805.975 4963.41,23805.975 4963.41,23806.81 4963.635,23806.81 4963.635,23808.95 4963.41,23808.95 4963.41,23809.785000000003 4958.37,23809.785000000003 4958.37,23811.015000000003 4963.41,23811.015000000003 4963.41,23811.85 4963.635,23811.85 4963.635,23813.989999999998 4963.41,23813.989999999998 4963.41,23814.825 4958.64,23814.825 4958.64,23816.114999999998 4964.51,23816.114999999998 4964.51,23815.115 4964.535,23815.115 4964.535,23811.345 4964.51,23811.345 4964.51,23809.455 4964.535,23809.455 4964.535,23805.684999999998 4964.51,23805.684999999998 4964.51,23804.684999999998"/>
<polygon class="l205d0" points="4918.5375,23811.120000000003 4918.5375,23814.045000000002 4920.860000000001,23814.045000000002 4920.860000000001,23813.19 4919.5275,23813.19 4919.5275,23811.120000000003"/>
<polygon class="l205d0" points="4918.6825,23801.67 4918.6825,23803.74 4917.35,23803.74 4917.35,23804.595 4919.672500000001,23804.595 4919.672500000001,23801.67"/>
<polygon class="l205d0" points="4965.4349999999995,23804.91 4965.4349999999995,23809.455 4966.335,23809.455 4966.335,23804.91"/>
<polygon class="l205d0" points="4965.4349999999995,23811.345 4965.4349999999995,23815.89 4966.335,23815.89 4966.335,23811.345"/>
<polygon class="l205d0" points="4965.4349999999995,23822.550000000003 4965.4349999999995,23827.095 4966.335,23827.095 4966.335,23822.550000000003"/>
<polygon class="l205d0" points="4948.335,23804.684999999998 4948.335,23816.114999999998 4953.51,23816.114999999998 4953.51,23814.825 4949.685,23814.825 4949.685,23813.989999999998 4949.435,23813.989999999998 4949.435,23811.85 4949.685,23811.85 4949.685,23811.015000000003 4953.51,23811.015000000003 4953.51,23809.785000000003 4949.685,23809.785000000003 4949.685,23808.95 4949.435,23808.95 4949.435,23806.81 4949.685,23806.81 4949.685,23805.975 4953.51,23805.975 4953.51,23804.684999999998"/>
<polygon class="l205d0" points="4916.135,23807.7 4916.135,23808.600000000002 4916.37,23808.600000000002 4916.37,23810.940000000002 4916.135,23810.940000000002 4916.135,23811.840000000004 4917.575,23811.840000000004 4917.575,23810.940000000002 4917.34,23810.940000000002 4917.34,23808.600000000002 4917.575,23808.600000000002 4917.575,23807.7"/>
<polygon class="l205d0" points="4920.635,23817.15 4920.635,23818.05 4920.87,23818.05 4920.87,23820.390000000003 4920.635,23820.390000000003 4920.635,23821.29 4922.075000000001,23821.29 4922.075000000001,23820.390000000003 4921.84,23820.390000000003 4921.84,23818.05 4922.075000000001,23818.05 4922.075000000001,23817.15"/>
<polygon class="l205d0" points="4918.6825,23820.570000000003 4918.6825,23822.64 4917.35,23822.64 4917.35,23823.495000000003 4919.672500000001,23823.495000000003 4919.672500000001,23820.570000000003"/>
<polygon class="l205d0" points="4914.0375,23820.570000000003 4914.0375,23823.495000000003 4916.360000000001,23823.495000000003 4916.360000000001,23822.64 4915.0275,23822.64 4915.0275,23820.570000000003"/>
<polygon class="l205d0" points="4954.41,23803.855 4954.41,23804.955 4954.435,23804.955 4954.435,23806.43 4954.1849999999995,23806.43 4954.1849999999995,23807.265000000003 4950.36,23807.265000000003 4950.36,23808.495000000003 4954.3099999999995,23808.495000000003 4954.3099999999995,23808.555 4955.535,23808.555 4955.535,23804.955 4957.56,23804.955 4957.56,23803.855"/>
<polygon class="l205d0" points="4915.9275,23801.579999999998 4915.9275,23803.02 4917.7825,23803.02 4917.7825,23801.579999999998"/>
<polygon class="l205d0" points="4945.795,23804.91 4945.795,23809.455 4946.895,23809.455 4946.895,23804.91"/>
<polygon class="l205d0" points="4945.795,23811.345 4945.795,23815.89 4946.895,23815.89 4946.895,23811.345"/>
<polygon class="l205d0" points="4945.795,23822.550000000003 4945.795,23827.095 4946.895,23827.095 4946.895,23822.550000000003"/>
<polygon class="l205d0" points="4939.92,23804.82 4939.92,23805.975 4943.745,23805.975 4943.745,23806.81 4943.97,23806.81 4943.97,23808.95 4943.745,23808.95 4943.745,23809.785000000003 4939.92,23809.785000000003 4939.92,23811.015000000003 4943.745,23811.015000000003 4943.745,23811.85 4943.97,23811.85 4943.97,23813.989999999998 4943.745,23813.989999999998 4943.745,23814.825 4939.92,23814.825 4939.92,23815.98 4944.845,23815.98 4944.845,23814.98 4944.87,23814.98 4944.87,23811.345 4944.845,23811.345 4944.845,23809.455 4944.87,23809.455 4944.87,23805.82 4944.845,23805.82 4944.845,23804.82"/>
<polygon class="l205d0" points="4954.41,23821.495 4954.41,23822.595 4954.435,23822.595 4954.435,23824.07 4954.1849999999995,23824.07 4954.1849999999995,23824.905 4950.36,23824.905 4950.36,23826.135 4954.3099999999995,23826.135 4954.3099999999995,23826.195000000003 4955.535,23826.195000000003 4955.535,23822.595 4957.56,23822.595 4957.56,23821.495"/>
<polygon class="l205d0" points="4918.5375,23805.495000000003 4918.5375,23808.420000000002 4919.5275,23808.420000000002 4919.5275,23806.350000000002 4920.860000000001,23806.350000000002 4920.860000000001,23805.495000000003"/>
<polygon class="l205d0" points="5018.985000000001,23814.915 5018.985000000001,23816.315 5022.135,23816.315 5022.135,23815.38 5020.245,23815.38 5020.245,23814.915"/>
<polygon class="l205d0" points="5022.91,23806.125 5022.91,23806.350000000002 5021.91,23806.350000000002 5021.91,23807.25 5024.06,23807.25 5024.06,23807.225 5025.06,23807.225 5025.06,23806.125"/>
<polygon class="l205d0" points="4973.985000000001,23802.93 4973.985000000001,23803.850000000002 4980.195,23803.850000000002 4980.195,23802.93"/>
<polygon class="l205d0" points="5014.35,23801.579999999998 5014.35,23805.785 5016.025000000001,23805.785 5016.025000000001,23802.225 5016.15,23802.225 5016.15,23801.579999999998"/>
<polygon class="l205d0" points="5003.325000000001,23815.125000000004 5003.325000000001,23816.475 5005.35,23816.475 5005.35,23817.33 5005.575,23817.33 5005.575,23818.575 5008.725,23818.575 5008.725,23817.345 5006.7,23817.345 5006.7,23816.43 5006.485000000001,23816.43 5006.485000000001,23815.125000000004"/>
<polygon class="l205d0" points="4995.865,23809.725 4995.865,23811.075 4999.015,23811.075 4999.015,23809.725"/>
<polygon class="l205d0" points="4995.865,23827.364999999998 4995.865,23828.715000000004 4999.015,23828.715000000004 4999.015,23827.364999999998"/>
<polygon class="l205d0" points="4973.985000000001,23816.95 4973.985000000001,23817.870000000003 4980.195,23817.870000000003 4980.195,23816.95"/>
<polygon class="l205d0" points="5003.675,23818.545 5003.675,23818.57 4999.275,23818.57 4999.275,23818.77 4989.96,23818.77 4989.96,23819.670000000002 4999.275,23819.670000000002 4999.275,23819.870000000003 5003.675,23819.870000000003 5003.675,23819.895 5004.675,23819.895 5004.675,23818.545"/>
<polygon class="l205d0" points="4986.8099999999995,23809.785000000003 4986.8099999999995,23811.015000000003 4993.785,23811.015000000003 4993.785,23809.785000000003"/>
<polygon class="l205d0" points="4986.8099999999995,23827.425 4986.8099999999995,23828.655 4993.785,23828.655 4993.785,23827.425"/>
<polygon class="l205d0" points="4973.985000000001,23820.570000000003 4973.985000000001,23821.489999999998 4980.195,23821.489999999998 4980.195,23820.570000000003"/>
<polygon class="l205d0" points="4973.97,23809.725 4973.97,23811.075 4977.700000000001,23811.075 4977.700000000001,23810.85 4979.69,23810.85 4979.69,23809.949999999997 4977.700000000001,23809.949999999997 4977.700000000001,23809.725"/>
<polygon class="l205d0" points="4973.97,23827.364999999998 4973.97,23828.715000000004 4977.700000000001,23828.715000000004 4977.700000000001,23828.49 4979.69,23828.49 4979.69,23827.59 4977.700000000001,23827.59 4977.700000000001,23827.364999999998"/>
<polygon class="l205d0" points="5003.37,23809.785000000003 5003.37,23811.015000000003 5006.5199999999995,23811.015000000003 5006.5199999999995,23809.785000000003"/>
<polygon class="l205d0" points="4986.8099999999995,23801.579999999998 4986.8099999999995,23805.81 4987.81,23805.81 4987.81,23805.975 4993.785,23805.975 4993.785,23804.89 4988.585,23804.89 4988.585,23801.579999999998"/>
<polygon class="l205d0" points="4989.96,23802.93 4989.96,23803.850000000002 4994.785,23803.850000000002 4994.785,23804.055 4998.015,23804.055 4998.015,23802.955 4995.785,23802.955 4995.785,23802.93"/>
<polygon class="l205d0" points="4989.96,23820.570000000003 4989.96,23821.489999999998 4994.785,23821.489999999998 4994.785,23821.695 4998.015,23821.695 4998.015,23820.594999999998 4995.785,23820.594999999998 4995.785,23820.570000000003"/>
<polygon class="l205d0" points="5013.64,23811.525 5013.64,23811.75 5012.415,23811.75 5012.415,23812.305 5002.525,23812.305 5002.525,23812.245000000003 5001.3,23812.245000000003 5001.3,23815.89 5000.400000000001,23815.89 5000.400000000001,23815.940000000002 4999.275,23815.940000000002 4999.275,23817.215 5002.425,23817.215 5002.425,23815.89 5002.4,23815.89 5002.4,23814.37 5002.65,23814.37 5002.65,23813.595 5005.575,23813.595 5005.575,23813.535000000003 5012.765,23813.535000000003 5012.765,23813.519999999997 5013.765,23813.519999999997 5013.765,23812.875 5016.87,23812.875 5016.87,23813.65 5017.095,23813.65 5017.095,23817.195 5018.005,23817.195 5018.005,23813.65 5018.22,23813.65 5018.22,23812.875 5019.995,23812.875 5019.995,23812.649999999998 5025.985,23812.649999999998 5025.985,23815.115 5025.735000000001,23815.115 5025.735000000001,23816.114999999998 5027.085,23816.114999999998 5027.085,23811.75 5020.245,23811.75 5020.245,23811.525"/>
<polygon class="l205d0" points="5018.985000000001,23804.485 5018.985000000001,23805.885 5020.245,23805.885 5020.245,23805.42 5022.135,23805.42 5022.135,23804.485"/>
<polygon class="l205d0" points="4981.135,23804.504999999997 4981.135,23806.395000000004 4980.780000000001,23806.395000000004 4980.780000000001,23807.204999999998 4982.19,23807.204999999998 4982.19,23804.504999999997"/>
<polygon class="l205d0" points="4981.135,23822.145 4981.135,23824.035 4980.780000000001,23824.035 4980.780000000001,23824.845 4982.19,23824.845 4982.19,23822.145"/>
<polygon class="l205d0" points="5003.37,23827.425 5003.37,23828.655 5006.5199999999995,23828.655 5006.5199999999995,23827.425"/>
<polygon class="l205d0" points="5005.575,23802.225 5005.575,23803.47 5005.35,23803.47 5005.35,23804.324999999997 5003.325000000001,23804.324999999997 5003.325000000001,23805.675000000003 5006.485000000001,23805.675000000003 5006.485000000001,23804.37 5006.7,23804.37 5006.7,23803.454999999998 5008.725,23803.454999999998 5008.725,23802.225"/>
<polygon class="l205d0" points="5005.575,23819.864999999998 5005.575,23821.11 5005.35,23821.11 5005.35,23821.965 5003.325000000001,23821.965 5003.325000000001,23823.315000000002 5006.485000000001,23823.315000000002 5006.485000000001,23822.010000000002 5006.7,23822.010000000002 5006.7,23821.095 5008.725,23821.095 5008.725,23819.864999999998"/>
<polygon class="l205d0" points="5018.985000000001,23822.125 5018.985000000001,23823.525 5020.245,23823.525 5020.245,23823.06 5022.135,23823.06 5022.135,23822.125"/>
<polygon class="l205d0" points="4996.17,23806.125 4996.17,23807.475 4999.32,23807.475 4999.32,23806.175 4998.32,23806.175 4998.32,23806.125"/>
<polygon class="l205d0" points="5007.465,23814.825 5007.465,23816.055 5009.75,23816.055 5009.75,23816.114999999998 5010.75,23816.114999999998 5010.75,23822.325 5009.75,23822.325 5009.75,23822.385 5007.465,23822.385 5007.465,23823.614999999998 5011.55,23823.614999999998 5011.55,23823.450000000004 5012.55,23823.450000000004 5012.55,23814.99 5011.55,23814.99 5011.55,23814.825"/>
<polygon class="l205d0" points="4996.17,23823.765 4996.17,23825.115 4999.32,23825.115 4999.32,23823.815 4998.32,23823.815 4998.32,23823.765"/>
<polygon class="l205d0" points="5021.91,23813.55 5021.91,23814.45 5022.91,23814.45 5022.91,23814.675000000003 5025.06,23814.675000000003 5025.06,23813.575 5024.06,23813.575 5024.06,23813.55"/>
<polygon class="l205d0" points="5022.91,23823.765 5022.91,23823.989999999998 5021.91,23823.989999999998 5021.91,23824.89 5024.06,23824.89 5024.06,23824.864999999998 5025.06,23824.864999999998 5025.06,23823.765"/>
<polygon class="l205d0" points="4999.275,23803.585000000003 4999.275,23804.86 5000.400000000001,23804.86 5000.400000000001,23804.91 5001.3,23804.91 5001.3,23808.555 5002.525,23808.555 5002.525,23808.495000000003 5012.415,23808.495000000003 5012.415,23809.050000000003 5013.64,23809.050000000003 5013.64,23809.275 5020.245,23809.275 5020.245,23809.050000000003 5027.085,23809.050000000003 5027.085,23804.684999999998 5025.735000000001,23804.684999999998 5025.735000000001,23805.684999999998 5025.985,23805.684999999998 5025.985,23808.15 5019.995,23808.15 5019.995,23807.925 5018.22,23807.925 5018.22,23807.15 5018.005,23807.15 5018.005,23803.605000000003 5017.095,23803.605000000003 5017.095,23807.15 5016.87,23807.15 5016.87,23807.925 5013.765,23807.925 5013.765,23807.28 5012.765,23807.28 5012.765,23807.265000000003 5005.575,23807.265000000003 5005.575,23807.204999999998 5002.65,23807.204999999998 5002.65,23806.43 5002.4,23806.43 5002.4,23804.91 5002.425,23804.91 5002.425,23803.585000000003"/>
<polygon class="l205d0" points="4980.610000000001,23809.949999999997 4980.610000000001,23810.85 4983.75,23810.85 4983.75,23809.949999999997"/>
<polygon class="l205d0" points="5021.73,23809.949999999997 5021.73,23810.85 5024.87,23810.85 5024.87,23809.949999999997"/>
<polygon class="l205d0" points="4980.610000000001,23827.59 4980.610000000001,23828.49 4983.75,23828.49 4983.75,23827.59"/>
<polygon class="l205d0" points="5021.73,23827.59 5021.73,23828.49 5024.87,23828.49 5024.87,23827.59"/>
<polygon class="l205d0" points="4996.17,23813.325 4996.17,23814.675000000003 4998.32,23814.675000000003 4998.32,23814.625 4999.32,23814.625 4999.32,23813.325"/>
<polygon class="l205d0" points="4999.275,23821.225 4999.275,23822.5 5000.400000000001,23822.5 5000.400000000001,23822.550000000003 5001.3,23822.550000000003 5001.3,23826.195000000003 5002.525,23826.195000000003 5002.525,23826.135 5012.415,23826.135 5012.415,23826.69 5013.64,23826.69 5013.64,23826.915 5020.245,23826.915 5020.245,23826.69 5027.085,23826.69 5027.085,23822.325 5025.735000000001,23822.325 5025.735000000001,23823.325 5025.985,23823.325 5025.985,23825.79 5019.995,23825.79 5019.995,23825.565000000002 5018.22,23825.565000000002 5018.22,23824.79 5018.005,23824.79 5018.005,23821.245 5017.095,23821.245 5017.095,23824.79 5016.87,23824.79 5016.87,23825.565000000002 5013.765,23825.565000000002 5013.765,23824.920000000002 5012.765,23824.920000000002 5012.765,23824.905 5005.575,23824.905 5005.575,23824.845 5002.65,23824.845 5002.65,23824.07 5002.4,23824.07 5002.4,23822.550000000003 5002.425,23822.550000000003 5002.425,23821.225"/>
<polygon class="l205d0" points="4994.785,23816.745000000003 4994.785,23816.95 4989.96,23816.95 4989.96,23817.870000000003 4995.785,23817.870000000003 4995.785,23817.845 4998.015,23817.845 4998.015,23816.745000000003"/>
<polygon class="l205d0" points="4989.96,23801.579999999998 4989.96,23802.03 4999.275,23802.03 4999.275,23802.23 5003.675,23802.23 5003.675,23802.255 5004.675,23802.255 5004.675,23801.579999999998"/>
<polygon class="l205d0" points="4978.885,23804.89 4978.885,23804.905 4974.615,23804.905 4974.615,23806.035000000003 4978.62,23806.035000000003 4978.62,23809.005 4983.83,23809.005 4983.83,23808.980000000003 4984.83,23808.980000000003 4984.83,23808.555 4985.605,23808.555 4985.605,23808.495000000003 4993.785,23808.495000000003 4993.785,23807.265000000003 4983.565,23807.265000000003 4983.565,23807.88 4982.705,23807.88 4982.705,23808.105 4979.745000000001,23808.105 4979.745000000001,23805.91 4979.885,23805.91 4979.885,23804.89"/>
<polygon class="l205d0" points="4978.885,23822.530000000002 4978.885,23822.545 4974.615,23822.545 4974.615,23823.675 4978.62,23823.675 4978.62,23826.644999999997 4983.83,23826.644999999997 4983.83,23826.620000000003 4984.83,23826.620000000003 4984.83,23826.195000000003 4985.605,23826.195000000003 4985.605,23826.135 4993.785,23826.135 4993.785,23824.905 4983.565,23824.905 4983.565,23825.52 4982.705,23825.52 4982.705,23825.745000000003 4979.745000000001,23825.745000000003 4979.745000000001,23823.55 4979.885,23823.55 4979.885,23822.530000000002"/>
<polygon class="l205d0" points="4973.985000000001,23818.77 4973.985000000001,23819.670000000002 4980.195,23819.670000000002 4980.195,23818.77"/>
<polygon class="l205d0" points="5014.35,23815.015 5014.35,23823.425000000003 5016.025000000001,23823.425000000003 5016.025000000001,23819.864999999998 5016.15,23819.864999999998 5016.15,23818.575 5016.025000000001,23818.575 5016.025000000001,23815.015"/>
<polygon class="l205d0" points="5007.465,23809.785000000003 5007.465,23811.015000000003 5011.55,23811.015000000003 5011.55,23810.85 5012.55,23810.85 5012.55,23809.949999999997 5011.55,23809.949999999997 5011.55,23809.785000000003"/>
<polygon class="l205d0" points="5007.465,23827.425 5007.465,23828.655 5011.55,23828.655 5011.55,23828.49 5012.55,23828.49 5012.55,23827.59 5011.55,23827.59 5011.55,23827.425"/>
<polygon class="l205d0" points="4980.780000000001,23813.595 4980.780000000001,23814.405000000002 4981.135,23814.405000000002 4981.135,23816.295 4982.19,23816.295 4982.19,23813.595"/>
<polygon class="l205d0" points="4973.985000000001,23801.579999999998 4973.985000000001,23802.03 4980.195,23802.03 4980.195,23801.579999999998"/>
<polygon class="l205d0" points="4983.31,23815.09 4983.31,23817.295 4983.21,23817.295 4983.21,23820.570000000003 4983.31,23820.570000000003 4983.31,23823.35 4985.01,23823.35 4985.01,23815.09"/>
<polygon class="l205d0" points="5010.75,23801.579999999998 5010.75,23804.684999999998 5009.75,23804.684999999998 5009.75,23804.745000000003 5007.465,23804.745000000003 5007.465,23805.975 5011.55,23805.975 5011.55,23805.81 5012.55,23805.81 5012.55,23801.579999999998"/>
<polygon class="l205d0" points="4978.62,23811.795000000002 4978.62,23814.765000000003 4974.615,23814.765000000003 4974.615,23815.895 4978.885,23815.895 4978.885,23815.91 4979.885,23815.91 4979.885,23814.89 4979.745000000001,23814.89 4979.745000000001,23812.695 4982.705,23812.695 4982.705,23812.92 4983.565,23812.92 4983.565,23813.535000000003 4993.785,23813.535000000003 4993.785,23812.305 4985.605,23812.305 4985.605,23812.245000000003 4984.83,23812.245000000003 4984.83,23811.820000000003 4983.83,23811.820000000003 4983.83,23811.795000000002"/>
<polygon class="l205d0" points="4987.81,23814.825 4987.81,23814.99 4986.8099999999995,23814.99 4986.8099999999995,23823.450000000004 4987.81,23823.450000000004 4987.81,23823.614999999998 4993.785,23823.614999999998 4993.785,23822.530000000002 4988.585,23822.530000000002 4988.585,23815.91 4993.785,23815.91 4993.785,23814.825"/>
<polygon class="l205d0" points="4983.21,23801.579999999998 4983.21,23802.93 4983.31,23802.93 4983.31,23805.71 4985.01,23805.71 4985.01,23801.579999999998"/>
<polygon class="l56d0" points="4956.88,23818.37 4956.88,23841.405 5001.01,23841.405 5001.01,23818.37"/>
<use transform="translate(0.0 0.0)" xlink:href="#cell_0"/>
</g>
</svg>